<?xml version="1.0" encoding="UTF-8"?>
<svg id="Layer_2" data-name="Layer 2" xmlns="http://www.w3.org/2000/svg" viewBox="0 0 207.18 208.22">
  <defs>
    <style>
      .cls-1 {
        fill: #8d801a;
      }

      .cls-2 {
        fill: #193712;
      }

      .cls-3 {
        fill: #f7ce94;
      }
    </style>
  </defs>
  <g id="Layer_1-2" data-name="Layer 1">
    <g>
      <path class="cls-3" d="M11.61,35.93c.21,0,1.93-1.23,3.58-1.3,2.05-.08,14.69-.49,15.27,0,.29.25-1.22,2.04-.07,3.61s11.55,4.32,16.58,11.4c12.94,18.2-4.21,29.18,10.65,51.08,18.21,26.85,54.74,26.87,74.87,43.07,2.57,2.07,5.4,6.51,7.8,9.1-9.55.41-19.01,1.21-28.59,1.3-.43,0-.87,0-1.3,0s-.87,0-1.3,0c-3.22-.03-6.54.19-9.75,0-4.15-.24-7.61-.68-11.7-1.3-2.59-.4-6-.67-8.45-1.3-26.01-6.64-60.13-33.09-61.76-62.02-1.05-18.69,16.69-42.47-5.82-53.64Z"/>
      <path class="cls-1" d="M179.25,147.04c-18.94-1.11-33.19-21.71-48.29-28.06-23.11-9.72-73.44-11.52-77.6-44.56-1.21-9.62,3.59-14.59,12.82-17.38,33.84-10.2,67.6,31.3,86.42,54.26,3.36,4.1,6.26,8.94,9.75,13-5.86-1.28-14.03,0-20.14-1.96,11.41,7.72,21.97,19.22,35.73,22.75.63.81.95,1.49,1.3,1.95Z"/>
      <path class="cls-2" d="M11.61,35.93c-26.49,1.02.16-8.3,3.59-11.03C26.6,15.81,24.77,1.92,48.29.16c35.71-2.67,43.63,28.7,59.34,52.49,13.56,20.55,31.42,38.1,44.98,58.66-18.83-22.96-52.58-64.46-86.42-54.26-9.24,2.78-14.03,7.76-12.82,17.38,4.16,33.03,54.49,34.84,77.6,44.56,15.1,6.35,29.35,26.95,48.29,28.06,2.13,2.81,18.54,20.4,18.19,21.77-.28,1.12-9.72-.69-11.04-.98-18.67-4.06-36.5-16.67-53.93-24.04-20.13-16.2-56.65-16.22-74.87-43.07-14.86-21.9,2.29-32.88-10.65-51.08-5.03-7.08-15.46-9.87-16.58-11.4s.37-3.36.07-3.61c-.58-.5-13.21-.09-15.27,0-1.65.07-3.37,1.29-3.58,1.3ZM43.27,23.73c-4.74,1.57-2.39,10.58,3.91,7.81,5-2.19,1.88-9.74-3.91-7.81Z"/>
      <path class="cls-1" d="M186.4,167.83l-1.95.65-18.18-4.24,31.18,43.22c-3.82.2-6.21,1.75-10.44-.28-5.39-2.59-39.14-46.08-46.74-54.3-2.4-2.59-5.23-7.03-7.8-9.1,17.43,7.37,35.26,19.98,53.93,24.04Z"/>
      <path class="cls-2" d="M99.32,165.55c.23.73,12.46,1.37,12.35,7.48H36.3c4.91-11.43,19.83-3.98,28.42-6.99,2.71-.95,13-11.2,14.46-14.45,2.45.63,5.86.9,8.45,1.3l-13.64,14.29c11.19-1.65,14.05,2.28,22.06-6.84,2.04-2.32,2.1-3.81,3.27-6.15,3.21.19,6.52-.03,9.75,0"/>
      <path class="cls-2" d="M184.45,168.48c1.4,5.42,23.86,35.44,22.68,37.62-1.17,2.16-7.94,1.28-9.69,1.37l-31.18-43.22,18.18,4.24Z"/>
      <path class="cls-2" d="M162.36,124.3c3.13.68,12.95,17.41,15.59,20.79-13.76-3.53-24.32-15.04-35.73-22.75,6.11,1.95,14.28.68,20.14,1.96Z"/>
      <path class="cls-3" d="M43.27,23.73c5.79-1.92,8.91,5.62,3.91,7.81-6.3,2.76-8.65-6.24-3.91-7.81Z"/>
    </g>
  </g>
</svg>